<?xml version="1.0" encoding="UTF-8"?>
<svg width="340.6861" height="176.6333" version="1.1" viewBox="0 0 340.6861 176.6333" xmlns="http://www.w3.org/2000/svg">
 <title>BanG Dream! logo</title>
 <desc>Japanese music band franchise</desc>
 <g transform="matrix(.98 0 0 .974 1003.112 973.6475)">
  <g transform="matrix(.984 0 0 1 4.23 0)">
   <g transform="translate(1.33,-2.46)">
    <g transform="matrix(1.02 0 0 1.03 -277 .36)" fill="#e50050">
     <g transform="matrix(.3143443 0 0 .3143443 -513.9799 -662.2298)">
      <g transform="matrix(4.433919,0,0,4.461406,-1917.449,-904.4372)" fill="#e5004f">
       <g transform="matrix(1.333517,0,0,1.290627,-153.5331,324.0884)" fill="#e5004f">
        <g transform="matrix(.7658554 0 0 .7658554 72.74079 -61.63527)">
         <path transform="matrix(.1691273 0 0 .1736711 439.4269 -94.03468)" d="m345.9081-336.958c0 4.0813-8.62834 28.81321-12.81733 36.73909-5.57028 10.53925-22.81556 31.73969-32.73198 36.50408-4.28112 2.05687-11.74662 4.65192-16.59002 5.76668-10.75438 2.47531-44.64096 1.39267-50.98325 0.69896-10.21962-1.11782-8.84142-26.3903-8.84142-26.3903-21.60565 1.82303-35.66852 1.03149-52.12694-1.63807-0.18805 0.68075 0.82097 5.49761-0.0139 8.71927-1.82304 7.03473-9.56155 15.95041-16.33209 18.81645-5.9628 2.52403-17.28563 2.81865-21.8716 0.47597-1.80283-0.92093-6.49381-6.01221-8.9058-8.27712-4.2375-3.97926-4.50165-4.04251-7.83139-1.87727-10.19757 6.63142-28.45942 11.43881-58.45982 11.61964-28.81115 0.17356-37.73931-8.62314-44.65892-16.78471l-3.75323-4.42688-2.919543 3.43125c-9.442184 11.0971-16.26029 20.18781-30.72369 10.52825-5.866403-3.91796-19.44544-15.80961-20.76769-19.74651-0.26808-0.79811-4.223343 2.07479-8.789453 6.38438-8.693403 8.20506-14.13171 16.56445-24.61852 19.18509-8.349821 2.08675-16.19253-0.0758-22.31729-6.15483-6.09889-6.05302-7.29607-13.21526-4.21305-25.20523 2.78462-10.82958 7.331202-17.95314 14.20867-22.26203 6.15556-3.85655 6.461167-4.56237 13.89466-32.0889 3.131181-11.59495 6.254826-20.08597 7.451401-21.39967 2.536941-2.78529-17.55676-1.7485-24.84943-5.39712-5.414266-2.70885-6.350535-8.8976-10.95052-15.81999l-2.13273-3.20949-6.2248 6.0043c-8.86596 8.55189-12.57629 11.79957-18.63498 12.62379-7.05214 0.95936-56.11816 0.68715-89.96287 0.7336-19.9102 0.0273-54.76908 1.20723-71.00797-17.27649-12.27076-13.96704-11.49082-35.84071-10.46491-49.95367 9.38273-49.0586 12.31476-58.25854 22.06295-99.18469-33.67272 0.19851-48.68695-0.41771-68.28444-3.05501-3.76869-1.74381-7.69852-4.18597-8.73299-5.42711-2.74417-3.29249-3.82711-2.79871-4.74572 2.1637-0.45006 2.43121-2.32072 9.92881-4.15706 16.66134-16.11812 50.91022-21.63113 91.8179-34.52916 141.0451-3.20157 12.21927-14.18163 15.95736-61.14781 14.33392l-39.69896-1.37223-2.89437 8.84077c-6.11144 18.66717-15.53353 40.18105-31.54212 40.55727-65.75199 1.54527-100.689 3.60289-210.8051 1.41477-4.08968-0.0813-6.06057-4.59262-6.35806-12.50035 10.96262-60.80731 72.98469-263.6206 85.93251-307.1356-58.09657-2.34363-60.94833-1.93775-88.70773-2.0335-2.72525-9e-3 -6.99547-8.86333-6.6686-16.10647 25.00329-86.9861 86.65155-288.994 92.06633-308.9071l5.66687-5.78049 96.66103-0.91025c76.07625-0.71641 93.87582 0.33495 93.87582 1.76694 26.0033 16.80347 32.42724 30.33357 33.00197 53.88506l0.55927 13.89713 3.61489-1.83736c9.10369-4.62719 18.79386-8.06963 90.27363-7.62549l70.57702 0.43862c5.69709 3.30977 13.09727 5.27862 17.7096 10.08456 0 0 9.79779-6.4688 18.11341-9.09712 7.57967-2.25386 143.6395-2.37452 154.2564-0.13693 10.52094 2.21754 18.16372 6.1528 26.32306 13.55379l7.187005 6.51905 5.121163-17.90043c2.816637-9.8452 7.618771-22.66502 10.67141-28.48839 4.484022-16.38134 32.61251-33.35932 32.61251-33.35932 0.053076-2.5534 171.3388-2.48668 171.3388 0.0666 0 0.97179 2.17148 2.54624 4.82554 3.49869 2.65405 0.95255 8.41953 5.03415 12.81221 9.07041 10.9031 10.01835 20.20519 20.28437 20.97815 35.98803-12.60113 65.63936-46.69907 166.0874-79.37097 267.0501l-6.8984 7.6816h16.50687c18.65821 0 34.351 3.08749 42.78122 9.70021l5.22637 4.0996 4.36662-4.11086c9.60869-9.04589-11.35711-9.68895 116.9954-9.68895 111.5007 0 126.544 0.19698 134.9767 1.81811 18.46208 3.54924 40.34288 19.33588 41.81648 40.45542 0.71033 10.18036-4.31864 21.14911-4.26998 29.67487 0 0 1.56592 3.51653 5.8705-4.80318 32.34054-62.50655 65.90836-110.5101 74.28341-121.5675 23.22681-28.95493 67.95318-35.50367 88.78374-11.95401 11.1433 12.85729 13.57076 15.24116 0.0207 41.11352-4.515 8.62075-27.80767 43.36639-27.80767 43.90293 13.62873-5.71559 30.24758-6.57552 41.93968-1.71425 12.33383 5.12807 19.22242 16.51113 12.80454 30.86948-41.61303 79.12113-102.7364 209.8258-138.9307 225.0396l-4.30814 1.28751 3.2161 4.70349c6.21262 9.08585 12.38645 15.57161 5.33075 23.41807-5.00098 5.5615-26.60942 33.00009-27.52145 34.48683-0.52767 0.86014 0.2722 9.65476 1.7775 19.54366 1.50532 9.8888 2.72338 20.50797 2.70684 23.59803-0.0953 17.80126-10.79811 27.5916-28.76755 23.31331-14.09529-3.93963-19.94031-10.3099-32.7579-15.50484-18.83328 8.04544-34.39987 16.8588-48.69472 18.34243-8.50979 0.88321-16.7324-13.82697-17.87265-22.81086-0.85108-6.70582-0.22749-14.92606 0.6521-24.84583 1.06367-11.99544 1.07977-8.00924 0.0545-20.20325-12.22421-8.82327-29.57703-17.98581-41.93888-26.14556z" fill="#fff" stroke-width="1.36524"/>
         <path d="m524.4128-139.441a1.771564 1.816988 0 0 0 0.66956-1.6898l-1.02659-7.55867 4.77867-5.84162a1.771564 1.816988 0 0 0-1.06293-2.96169l-7.32247-1.31731-3.94287-6.46849a1.798818 1.844243 0 0 0-1.57169-0.85852 1.789733 1.835158 0 0 0-1.5081 0.97209l-3.47953 6.72285-7.22253 1.85333a1.771564 1.816988 0 0 0-1.25372 2.38026 1.953262 2.007772 0 0 0 0.39065 0.6414l5.1875 5.4873-0.52511 7.61318a1.771564 1.816988 0 0 0 0.79221 1.63529 1.807903 1.853328 0 0 0 1.76248 0.12628l6.6956-3.34325 6.89547 2.86175a1.798818 1.844243 0 0 0 1.72614-0.25166z" stroke-width="1.12653"/>
         <path d="m429.927-201.8997a3.156967 3.276312 0 0 0-3.25428-2.22073h-22.05552a5.935531 6.15429 0 0 0-4.4003 2.22073 13.29818 13.84217 0 0 0-2.92992 5.92524s-7.0275 27.28601-7.0275 27.38559a6.162573 6.393292 0 0 0 6.33556 7.8771h18.92017a5.935531 6.15429 0 0 0 4.41111-2.22072 13.4063 13.94176 0 0 0 2.91912-5.91529l1.4055-5.42734c0.30812-1.23482 0.083-1.81241-0.70058-1.81241h-12.00081c-0.78384 0-1.31901 0.61542-1.62173 1.81241l-1.43793 5.37754h-2.77856l2.59476-9.84885h12.7576c2.45423 0 2.92994-0.49293 3.80567-1.49376a8.995194 9.331019 0 0 0 1.98932-4.00328l3.03803-11.75091a9.31954 9.669605 0 0 0 0.0713-5.89537zm-21.08251 16.73009 2.84344-11.05381h3.80567l-2.84344 11.05381z" stroke-width="1.214"/>
         <path d="m468.4968-201.7029c-0.51142-1.45962-1.97219-2.39591-3.54934-2.27496h-24.07467c-0.43512 3e-3 -0.8688 0.049-1.29413 0.13853-1.36325 0.34509-2.58539 1.08966-3.50178 2.13339-1.53983 1.73987-2.6299 3.81711-3.17824 6.05644l-1.5225 5.56102c-0.3359 1.26385-0.0905 1.85029 0.76221 1.85029h10.5624c1.2444-0.0342 2.41318-0.59067 3.20679-1.52675 1.01856-1.16119 1.73956-2.54434 2.10296-4.03424l0.56808-2.05253h4.14885l-2.81665 10.41424h-10.65756c-5.41762 0.29066-10.06395 3.872-11.60912 8.94816l-2.28378 8.65496c-0.6904 1.95534-0.73996 4.07231-0.14178 6.05645 0.34777 1.05149 1.22386 1.85647 2.32183 2.1334 0.42241 0.10614 0.8582 0.15279 1.29413 0.13851h25.88265c1.24592-0.0264 2.41762-0.58428 3.20679-1.52675 1.02639-1.15641 1.75406-2.53636 2.12199-4.02415l8.38331-30.53497c0.47652-2.11293 0.52089-4.41189 0.0676-6.11104zm-20.36356 22.74956-3.07356 11.02091h-4.18689l3.07356-11.02091z" stroke-width="1.27514"/>
         <path d="m512.993-203.7763h-38.82621c-0.81685 0-1.37152 0.61289-1.69423 1.84383l-10.68982 40.37843c-0.32169 1.25668-0.0866 1.82322 0.73014 1.82322h12.50506c0.81687 0 1.37153-0.60053 1.70433-1.82322l9.046-34.19807h4.0944l-9.06618 34.19807c-0.32169 1.25668-0.0866 1.82322 0.73014 1.82322h8.49133c0.80478 0 1.37154-0.60053 1.70433-1.82322l9.046-34.19807h3.93304l-9.06617 34.19807c-0.3217 1.25668-0.0866 1.82322 0.73015 1.82322h12.50505c0.80477 0 1.37153-0.60053 1.69424-1.82322l8.83422-33.37402c0.19761-5.46391-2.39047-8.80256-6.40582-8.84824z" stroke-width="1.24344"/>
         <path d="m546.4714-202.6931a11.88227 11.72631 0 0 0-6.61605 2.65675l6.08372-11.35987c2.1103-3.9668 0.78233-7.14572-2.99433-7.07244-3.77381 0.0693-7.13887 1.44748-10.64651 7.31979l-13.8785 26.10936c-2.1293 3.96679-0.78233 7.14573 2.97532 7.07243a11.88227 11.72631 0 0 0 6.61606-2.66591l-6.08373 11.35986c-2.12931 3.96679-0.78233 7.14573 2.99433 7.07244 3.77666-0.0733 7.49059-1.3467 10.64652-7.31062l13.8785-26.10936c2.10078-3.96679 0.75951-7.13656-3.00385-7.07243z" stroke-width="1.15716"/>
         <path d="m355.7685-205.0044h-26.40635c-0.76487 0-1.30514 0.58644-1.60866 1.75935l-12.95023 49.14996c-0.30555 1.19152-0.0706 1.75935 0.69405 1.75935h29.54272a5.878194 5.976188 0 0 0 4.38083-2.15031 13.35493 13.5907 0 0 0 2.89357-5.75278l1.17362-4.29132a0.2822747 0.2867081 0 0 1 0-0.0958l8.40754-31.92887c1.18373-4.67296-1.53785-8.48022-6.15137-8.48022zm-23.37113 44.68179 9.77338-37.04866h3.78389l-9.7835 37.04866z" stroke-width="1.18397"/>
         <path d="m377.3716-196.4158-7.99271 33.86277c-0.29522 1.2413-0.78725 1.80734-1.50888 1.80734h-11.0433c-0.72163 0-0.92937-0.59484-0.6451-1.80734l9.4688-40.01965c0.28429-1.24131 0.77632-1.8272 1.49796-1.8272h24.05467a2.930298 3.326696 0 0 1 3.00684 2.23434c0.50296 1.48957 0.0765 5.09432-0.51389 7.57693l-0.88566 3.84309c-0.29521 1.24129-0.78724 1.82717-1.50888 1.82717h-8.93303a1.935308 2.194626 0 0 1-2.00092-1.49947 5.718454 6.484574 0 0 1 0.0765-3.97219l0.45922-2.02579z" stroke-width="1.16706"/>
         <path d="m422.4784-250.351h-22.59762c-0.76106 0-1.29966 0.58051-1.60406 1.74153l-10.12797 38.2662c-0.31611 1.1847-0.0821 1.7415 0.67911 1.7415h11.8257c0.76104 0 1.29964-0.5805 1.60405-1.7415l8.57073-32.34266h3.75845l-8.55899 32.34266c-0.31612 1.1847-0.0821 1.7415 0.67909 1.7415h11.82571c0.76106 0 1.29964-0.5805 1.60407-1.7415l8.37165-31.51334c1.22941-4.73886-1.5104-8.44702-6.07675-8.44702z" stroke-width="1.17776"/>
         <path d="m394.286-248.6134a3.053069 3.248958 0 0 0-3.17841-2.18213h-21.18918a5.45679 5.806907 0 0 0-1.13921 0.13336 6.106137 6.497917 0 0 0-3.08724 2.04877 12.64517 13.45651 0 0 0-2.80244 5.83115l-1.34428 5.33412c-0.29618 1.2123-0.0799 1.78208 0.66074 1.78208h9.31869a3.747983 3.98846 0 0 0 2.82524-1.46688 8.521251 9.067988 0 0 0 1.90245-3.80662l0.48986-1.97603h3.65686l-2.50625 9.9772h-9.39845a11.3123 12.03812 0 0 0-10.25283 8.59519l-2.07336 8.25574a9.033893 9.613523 0 0 0-0.13676 5.83116 2.916364 3.103483 0 0 0 2.06195 2.04878 3.930256 4.182428 0 0 0 1.07086 0.14549h22.898a3.759376 4.000583 0 0 0 2.81385-1.4669 8.56682 9.11648 0 0 0 1.8683-3.87935l7.39343-29.33761a9.033893 9.613523 0 0 0 0.13676-5.84327zm-17.99945 21.82138-2.72269 10.63184h-3.61128l2.7113-10.63184z" stroke-width="1.17518"/>
         <path d="m471.5306-252.9861a6.409874 6.163085 0 0 0-6.64541-7.47111h-23.55662a6.199104 5.950971 0 0 0-4.59973 2.14469 13.88599 13.31604 0 0 0-3.06236 5.72709l-10.29051 36.64856a9.819382 9.439066 0 0 0-0.13635 5.72707 3.310322 3.181707 0 0 0 3.40951 2.1447h26.9041a6.199104 5.950971 0 0 0 4.59974-2.1447 13.88599 13.31604 0 0 0 3.06236-5.72707l4.26498-15.2015c0.32236-1.19018 0.0867-1.74404-0.71909-1.74404h-15.74572l-2.80202 10.05184h2.96319l-0.7315 2.61606h-6.88101l9.0631-32.52412h3.94262l-4.31457 15.43716c-0.33474 1.19022-0.0867 1.75586 0.7191 1.75586h14.5059c0.81828 0 1.37619-0.57155 1.71096-1.75586l4.01702-14.37659a12.52219 12.01978 0 0 0 0.34712-1.29625z" stroke-width="1.22081"/>
         <path d="m356.5617-260.2177h-27.47316c-0.79366 0-1.35533 0.57692-1.67282 1.73079l-13.4313 48.39135c-0.31747 1.17741-0.0732 1.73078 0.7204 1.73078h30.76993a6.105146 5.887026 0 0 0 4.53003-2.11932 13.67553 13.18694 0 0 0 2.97931-5.66332l3.60203-12.95146a6.581348 6.346214 0 0 0 0.0855-3.7677 2.185642 2.107555 0 0 0-2.23447-1.42466 4.029397 3.885437 0 0 0 3.02815-1.42466 8.449523 8.147644 0 0 0 1.69724-2.8611c0.15873-0.52983 3.74854-13.30468 3.74854-13.30468 1.31872-4.61542-1.52628-8.35956-6.26388-8.35956zm-20.39119 44.03496h-3.91949l4.15148-14.83532h3.93172zm2.02692-21.42878 4.17591-15.07079h3.93172l-4.15149 15.07079z" stroke-width="1.19903"/>
         <switch transform="matrix(.2223161 0 0 .2307397 78.16101 -949.2992)">
          <g fill="#e5004f">
           <g fill="#e5004f">
            <g fill="#e5004f">
             <g transform="matrix(.5583757 0 0 .5108241 206.4539 1878.05)" fill="#e5004f">
              <g transform="translate(-3.976115,-8.033419)" fill="#e5004f">
               <path d="m2423.476 3192.942c-1.038 0.2988-1.9003 0.4377-2.7348 0.4377-4.4408 0-6.7686-3.412-5.4799-8.596l2.9024-11.6c5.2013-20.8224 18.7016-3.8707 27.648-39.6952l13.6668-54.718c1.558-6.2583 7.3709-11.1523 13.1848-11.1523h8.0389c5.8046 0 9.1509 4.8952 7.5939 11.1523l-12.7953 51.295c-8.6134 34.4934-26.722 55.8927-52.0248 62.8765zm102.5553 0.4377c-0.853 0-1.6505-0.1389-2.5313-0.4377-21.7982-6.9837-29.2061-28.394-20.5926-62.8764l12.8137-51.295c1.5488-6.2584 7.3617-11.1523 13.157-11.1523h8.0297c5.7851 0 9.1324 4.8952 7.5754 11.1523l-13.639 54.718c-8.9289 35.8355 13.0275 18.7338 7.8067 39.6952l-2.8931 11.6c-1.2795 5.184-5.3216 8.596-9.7265 8.5959z" stroke-width="1.06459"/>
               <path d="m2828.47 3153.858h-16.9545c-19.2957 0-35.4848-3.4971-46.6962-10.4023l-10.1506 40.2577c-1.5492 6.1409-7.32 10.9801-13.1009 10.9801h-9.376c-5.781 0-9.1175-4.8392-7.5693-10.9801l26.0628-103.3475c1.5584-6.1617 7.3199-10.98 13.1009-10.98h9.3852c5.7809 0 9.1185 4.8196 7.5601 10.98l-7.6521 30.3354c-1.2447 4.9368 26.0352 12.5673 46.1515 12.5673h16.9545c5.7902 0 9.1094 4.8196 7.5693 10.9703l-2.1756 8.6392c-1.5482 6.1507-7.3097 10.9799-13.1091 10.9799z" stroke-width="1.05334"/>
               <path d="m2881.039 3139.948h-7.966c-5.666 0-8.914-4.439-7.389-10.122l11.701-43.665c1.525-5.6751 7.154-10.122 12.82-10.122h7.957c5.656 0 8.922 4.448 7.407 10.122l-11.701 43.665c-1.525 5.6819-7.173 10.122-12.829 10.122zm20.5413 52.5813h-23.465c-5.666 0-8.9132-4.4571-7.398-10.1131l2.093-7.813c1.506-5.657 7.154-10.113 12.82-10.113h24.259c25.36 0 36.979-11.187 44.025-37.476l9.139-44.7789c1.516-5.675 7.163-10.1219 12.82-10.1219h8.093c5.657 0 8.904 4.4479 7.389 10.1219l-9.247 45.1849c-10.4046 50.8413-37.928 65.1091-80.528 65.1091z"/>
               <path d="m2630.171 3193.026h-41.5908c-5.886 0-9.2754-4.8425-7.6988-10.9875l2.1781-8.4885c1.5776-6.146 7.4542-10.9872 13.3412-10.9872h42.4453c26.3629 0 38.4554-12.1541 45.7878-40.716l9.5106-37.0502c1.587-6.1656 7.4636-10.9969 13.3506-10.9969h8.421c5.8963 0 9.3034 4.8324 7.7175 10.9969l-9.623 37.4914c-13.9614 54.3193-39.5158 70.738-83.8395 70.738z" stroke-width="1.06331"/>
               <path d="m2651.01 3105.024h-37.755c-5.666 0-8.913-4.448-7.398-10.104l2.354-8.76c1.516-5.675 7.145-10.122 12.811-10.122h37.764c5.656 0 8.914 4.448 7.398 10.122l-2.346 8.76c-1.524 5.657-7.172 10.104-12.828 10.104z"/>
               <path d="m2812.875 3098.632c0.577-0.442 0.893-1.155 0.812-1.867l-0.893-8.462 5.702-6.306c0.478-0.5501 0.632-1.308 0.424-1.9851-0.225-0.695-0.812-1.2179-1.525-1.362l-8.318-1.759-4.231-7.371c-0.37-0.622-1.029-1.01-1.768-1.01-0.713 0-1.389 0.388-1.741 1.01l-4.267 7.371-8.309 1.759c-0.704 0.144-1.272 0.6681-1.498 1.362-0.153 0.397-0.153 0.857 0 1.236 0.081 0.2801 0.226 0.514 0.415 0.749l5.693 6.306-0.911 8.462c-0.063 0.695 0.253 1.407 0.839 1.849 0.595 0.415 1.353 0.505 2.03 0.198l7.75-3.455 7.759 3.464c0.666 0.298 1.442 0.208 2.037-0.1889z"/>
               <path d="m2847.047 3105.534c0.551-0.406 0.848-1.083 0.785-1.768l-0.839-7.993 5.395-5.9811c0.442-0.505 0.595-1.2359 0.388-1.876-0.198-0.659-0.758-1.146-1.425-1.281l-7.858-1.669-4.033-6.956c-0.343-0.5949-0.965-0.965-1.651-0.965-0.695 0-1.326 0.361-1.678 0.965l-4.006 6.956-7.885 1.678c-0.649 0.1351-1.2 0.614-1.407 1.281-0.144 0.388-0.126 0.812 0 1.191 0.09 0.244 0.208 0.487 0.406 0.686l5.377 5.972-0.848 8.002c-0.054 0.6861 0.208 1.362 0.785 1.759 0.541 0.406 1.281 0.478 1.895 0.198l7.371-3.257 7.344 3.275c0.594 0.252 1.334 0.18 1.884-0.2169z"/>
               <path d="m2571.624 3102.004c0.559-0.424 0.875-1.119 0.803-1.822l-0.866-8.237 5.539-6.171c0.487-0.523 0.632-1.263 0.415-1.94-0.217-0.668-0.776-1.182-1.462-1.326l-8.11-1.723-4.159-7.181c-0.352-0.614-1.01-0.983-1.705-0.983-0.704 0-1.353 0.3699-1.723 0.983l-4.141 7.172-8.101 1.732c-0.704 0.1439-1.254 0.65-1.479 1.326-0.126 0.406-0.126 0.83 0 1.218 0.09 0.262 0.225 0.514 0.424 0.722l5.548 6.162-0.884 8.246c-0.072 0.695 0.225 1.38 0.812 1.813 0.569 0.415 1.317 0.496 1.976 0.189l7.578-3.3561 7.56 3.365c0.64 0.299 1.379 0.217 1.975-0.1889z"/>
               <path d="m2592.175 3076.306c0.559-0.415 0.839-1.073 0.767-1.75l-0.83-8.002 5.377-5.972c0.469-0.5051 0.613-1.236 0.406-1.8761-0.208-0.659-0.758-1.146-1.426-1.29l-7.876-1.6779-3.996-6.9741c-0.352-0.577-1.001-0.938-1.696-0.938-0.667 0-1.299 0.361-1.66 0.938l-4.015 6.9741-7.858 1.6779c-0.686 0.144-1.236 0.622-1.426 1.29-0.153 0.379-0.153 0.803 0 1.173 0.072 0.262 0.208 0.505 0.388 0.704l5.377 5.9631-0.839 8.0109c-0.081 0.6771 0.226 1.3351 0.785 1.741 0.568 0.415 1.29 0.4961 1.922 0.198l7.334-3.257 7.353 3.266c0.613 0.279 1.344 0.207 1.913-0.1989z"/>
              </g>
             </g>
            </g>
           </g>
          </g>
         </switch>
        </g>
       </g>
      </g>
     </g>
    </g>
   </g>
  </g>
 </g>
</svg>